<svg width="50" height="50" viewBox="0 0 50 50" fill="none" xmlns="http://www.w3.org/2000/svg">
<path d="M22.0504 35.7984L20.2174 30.841C20.2174 30.841 17.2389 34.1462 12.7723 34.1462C8.81995 34.1462 6.01385 30.7271 6.01385 25.2565C6.01385 18.2475 9.5644 15.7402 13.0586 15.7402C18.0983 15.7402 19.7017 18.9882 21.0766 23.1482L22.9096 28.8467C24.7419 34.3739 28.1784 38.8186 38.0865 38.8186C45.1889 38.8186 49.9996 36.6534 49.9996 30.9552C49.9996 26.3395 47.3647 23.946 42.439 22.8062L38.7737 22.0085C36.254 21.4387 35.5095 20.4129 35.5095 18.7033C35.5095 16.7658 37.0555 15.626 39.5759 15.626C42.325 15.626 43.8139 16.6519 44.0432 19.1021L49.7703 18.4182C49.3122 13.2897 45.7614 11.1813 39.9195 11.1813C34.7653 11.1813 29.7251 13.1188 29.7251 19.3301C29.7251 23.205 31.6151 25.6556 36.3683 26.7951L40.2633 27.7066C43.1841 28.3905 44.1575 29.5871 44.1575 31.2399C44.1575 33.3479 42.0959 34.2028 38.2013 34.2028C32.4166 34.2028 30.0117 31.1827 28.6368 27.0226L26.7468 21.3246C24.3418 13.9165 20.504 11.1813 12.8866 11.1813C4.46771 11.1813 0.000244141 16.4808 0.000244141 25.4842C0.000244141 34.146 4.46776 38.8185 12.4862 38.8185C18.9572 38.8185 22.0504 35.7984 22.0504 35.7984Z" fill="#FC0000"/>
</svg>
