<svg width="52" height="52" viewBox="0 0 52 52" fill="none" xmlns="http://www.w3.org/2000/svg">
<path fill-rule="evenodd" clip-rule="evenodd" d="M4.63895 26.0037C4.63895 20.3385 6.88946 14.9052 10.8954 10.8993C14.9013 6.89337 20.3346 4.64286 25.9998 4.64286C31.6651 4.64286 37.0983 6.89337 41.1042 10.8993C45.1102 14.9052 47.3607 20.3385 47.3607 26.0037C47.3607 31.669 45.1102 37.1022 41.1042 41.1081C37.0983 45.1141 31.6651 47.3646 25.9998 47.3646C20.3346 47.3646 14.9013 45.1141 10.8954 41.1081C6.88946 37.1022 4.63895 31.669 4.63895 26.0037ZM25.9998 0C22.585 -5.08853e-08 19.2035 0.672606 16.0486 1.97941C12.8937 3.28622 10.0271 5.20164 7.61241 7.61631C5.19774 10.031 3.28232 12.8976 1.97551 16.0525C0.6687 19.2074 -0.00390625 22.5889 -0.00390625 26.0037C-0.00390625 29.4186 0.6687 32.8 1.97551 35.9549C3.28232 39.1098 5.19774 41.9764 7.61241 44.3911C10.0271 46.8058 12.8937 48.7212 16.0486 50.028C19.2035 51.3348 22.585 52.0074 25.9998 52.0074C32.8964 52.0074 39.5106 49.2678 44.3872 44.3911C49.2639 39.5145 52.0035 32.9003 52.0035 26.0037C52.0035 19.1071 49.2639 12.493 44.3872 7.61631C39.5106 2.73967 32.8964 1.02768e-07 25.9998 0ZM14.2032 20.7146C23.4444 18.9503 30.5164 19.8974 39.3118 24.5811C39.9639 24.9284 40.7273 25.0024 41.434 24.7868C42.1406 24.5712 42.7327 24.0837 43.08 23.4316C43.4272 22.7794 43.5012 22.0161 43.2856 21.3094C43.07 20.6028 42.5825 20.0107 41.9304 19.6634C32.0021 14.378 23.6338 13.2377 13.1558 15.2434C12.4414 15.3937 11.8146 15.8185 11.4102 16.4262C11.0058 17.034 10.8561 17.7763 10.9933 18.4933C11.1306 19.2103 11.5439 19.8447 12.1442 20.2602C12.7445 20.6756 13.4838 20.8388 14.2032 20.7146ZM28.7892 39.2934C24.7629 37.4549 22.0404 36.9349 17.8507 37.4511C17.1173 37.5413 16.3781 37.3364 15.7958 36.8815C15.2134 36.4267 14.8357 35.7591 14.7455 35.0257C14.6554 34.2923 14.8603 33.5531 15.3151 32.9708C15.77 32.3885 16.4376 32.0107 17.1709 31.9206C22.5158 31.2631 26.271 32.0171 31.1032 34.2234C31.7756 34.5303 32.2985 35.0917 32.5569 35.784C32.8153 36.4764 32.7881 37.2431 32.4812 37.9154C32.1744 38.5878 31.613 39.1106 30.9206 39.3691C30.2282 39.6275 29.4616 39.6003 28.7892 39.2934ZM16.2275 28.8303C22.7647 27.5303 27.2701 28.7263 34.8101 32.37C35.4725 32.6726 36.227 32.7038 36.912 32.4569C37.5971 32.21 38.1583 31.7047 38.4753 31.0492C38.7924 30.3936 38.8402 29.64 38.6085 28.9496C38.3767 28.2593 37.8839 27.6872 37.2355 27.3557C29.1941 23.4669 23.3775 21.7286 15.143 23.3629C14.7782 23.4277 14.43 23.5647 14.1188 23.7658C13.8076 23.9669 13.5397 24.228 13.3307 24.5339C13.1216 24.8399 12.9758 25.1844 12.9015 25.5474C12.8273 25.9104 12.8262 26.2845 12.8983 26.6479C12.9705 27.0113 13.1144 27.3567 13.3216 27.6638C13.5289 27.9709 13.7953 28.2336 14.1053 28.4365C14.4154 28.6394 14.7627 28.7784 15.1271 28.8453C15.4915 28.9123 15.8656 28.9097 16.2275 28.8303Z" fill="#00E92B"/>
</svg>
